<svg width="172" height="196" viewBox="0 0 172 196" fill="none" xmlns="http://www.w3.org/2000/svg">
<path d="M5 51.5V144.5" stroke="#64FFDA" stroke-width="10" stroke-linecap="round"/>
<path d="M166.081 51.5V144.5" stroke="#64FFDA" stroke-width="10" stroke-linecap="round"/>
<path d="M85.54 5L4.99968 51.5" stroke="#64FFDA" stroke-width="10" stroke-linecap="round"/>
<path d="M85.5407 5L166.081 51.5" stroke="#64FFDA" stroke-width="10" stroke-linecap="round"/>
<path d="M85.5404 191L5 144.5" stroke="#64FFDA" stroke-width="10" stroke-linecap="round"/>
<path d="M85.54 191L166.08 144.5" stroke="#64FFDA" stroke-width="10" stroke-linecap="round"/>
<path d="M78.7578 132.423C77.908 132.423 77.2192 131.735 77.2192 130.885V78.5888C77.2192 77.739 76.5303 77.0502 75.6806 77.0502H58.5386C57.6888 77.0502 57 76.3613 57 75.5116V65.5386C57 64.6888 57.6888 64 58.5386 64H113.086C113.936 64 114.625 64.6888 114.625 65.5386V75.5116C114.625 76.3613 113.936 77.0502 113.086 77.0502H95.9444C95.0947 77.0502 94.4058 77.739 94.4058 78.5888V130.885C94.4058 131.735 93.717 132.423 92.8673 132.423H78.7578Z" fill="#64FFDA"/>
</svg>
